<svg version="1.1" viewBox="0.0 0.0 933.4461942257218 284.3490813648294" fill="none" stroke="none" stroke-linecap="square" stroke-miterlimit="10" xmlns:xlink="http://www.w3.org/1999/xlink" xmlns="http://www.w3.org/2000/svg"><clipPath id="p.0"><path d="m0 0l933.44617 0l0 284.3491l-933.44617 0l0 -284.3491z" clip-rule="nonzero"/></clipPath><g clip-path="url(#p.0)"><path fill="#000000" fill-opacity="0.0" d="m0 0l933.44617 0l0 284.3491l-933.44617 0z" fill-rule="evenodd"/><path fill="#ffffff" d="m13.6850395 38.54775l0 0c0 -13.904518 11.271839 -25.176357 25.176357 -25.176357l100.7024 0l0 0c6.677185 0 13.080887 2.652502 17.802383 7.3739834c4.7214813 4.721483 7.3739777 11.125189 7.3739777 17.802374l0 207.25359c0 13.9045105 -11.271835 25.176361 -25.176361 25.176361l-100.7024 0c-13.904518 0 -25.176357 -11.271851 -25.176357 -25.176361z" fill-rule="evenodd"/><path stroke="#000000" stroke-width="12.0" stroke-linejoin="round" stroke-linecap="butt" d="m13.6850395 38.54775l0 0c0 -13.904518 11.271839 -25.176357 25.176357 -25.176357l100.7024 0l0 0c6.677185 0 13.080887 2.652502 17.802383 7.3739834c4.7214813 4.721483 7.3739777 11.125189 7.3739777 17.802374l0 207.25359c0 13.9045105 -11.271835 25.176361 -25.176361 25.176361l-100.7024 0c-13.904518 0 -25.176357 -11.271851 -25.176357 -25.176361z" fill-rule="evenodd"/><path fill="#ffffff" d="m57.783867 14.2748785l3.0078735 12.031495l56.787407 0l3.0078735 -12.031495z" fill-rule="evenodd"/><path stroke="#000000" stroke-width="8.0" stroke-linejoin="round" stroke-linecap="butt" d="m57.783867 14.2748785l3.0078735 12.031495l56.787407 0l3.0078735 -12.031495z" fill-rule="evenodd"/><path fill="#cfe2f3" d="m57.783867 247.13437l62.803154 0l0 1.0708618l-62.803154 0z" fill-rule="evenodd"/><path stroke="#000000" stroke-width="8.0" stroke-linejoin="round" stroke-linecap="butt" d="m57.783867 247.13437l62.803154 0l0 1.0708618l-62.803154 0z" fill-rule="evenodd"/><path fill="#ffffff" d="m137.88885 204.4498l0 0c-53.80211 0 -97.41733 -31.608002 -97.41733 -70.598434c0 -38.990433 43.61522 -70.59842 97.41733 -70.59842l0 0c-30.662819 16.666027 -48.708664 42.821712 -48.708664 70.59842c0 27.776718 18.045845 53.932404 48.708664 70.598434z" fill-rule="evenodd"/><path stroke="#000000" stroke-width="12.0" stroke-linejoin="round" stroke-linecap="butt" d="m137.88885 204.4498l0 0c-53.80211 0 -97.41733 -31.608002 -97.41733 -70.598434c0 -38.990433 43.61522 -70.59842 97.41733 -70.59842l0 0c-30.662819 16.666027 -48.708664 42.821712 -48.708664 70.59842c0 27.776718 18.045845 53.932404 48.708664 70.598434z" fill-rule="evenodd"/><path fill="#000000" d="m192.20735 67.01826l0 147.35785l14.711685 0l0 -147.35785z" fill-rule="evenodd"/><path fill="#000000" d="m227.89102 108.592865l0 68.65967c0 7.1342926 0.68688965 13.195282 2.0606842 18.182968c1.391159 4.987686 3.3388214 9.123047 5.8429413 12.406097c2.5041199 3.2830353 5.434265 5.6821747 8.790497 7.197418c3.3735962 1.5152435 6.964569 2.272873 10.772919 2.272873c5.0082397 0 9.546936 -1.2416687 13.61615 -3.7249756c4.0691833 -2.5043793 8.373138 -6.1557007 12.911835 -10.9539795l0 11.743164l14.7117 0l0 -105.78323l-14.7117 0l0 78.982285c-3.3909912 3.5987244 -7.121063 6.6292114 -11.190277 9.091492c-4.0691833 2.4622803 -7.903595 3.6934204 -11.503265 3.6934204c-3.8605194 0 -6.825485 -0.6313629 -8.894852 -1.8940582c-2.0519867 -1.2627106 -3.6779175 -3.25148 -4.8778076 -5.9662933c-1.1998901 -2.777954 -1.9737396 -6.008377 -2.321518 -9.691269c-0.33041382 -3.703949 -0.49562073 -8.365433 -0.49562073 -13.984482l0 -60.231094z" fill-rule="evenodd"/><path fill="#000000" d="m359.12244 105.657074c-4.747406 0 -9.26001 1.262703 -13.537903 3.7881165c-4.2778625 2.5254135 -8.60788 6.155693 -12.990082 10.890846l0 -11.743172l-14.7117 0l0 105.78323l14.7117 0l0 -78.982285c3.7039795 -3.7881317 7.4949646 -6.8607025 11.372864 -9.217758c3.8952942 -2.3780975 7.6688538 -3.5671463 11.320679 -3.5671463c3.70401 0 6.6254883 0.65239716 8.764435 1.9571915c2.138916 1.2837524 3.808319 3.2514725 5.008209 5.9031525c1.0955505 2.525406 1.8346252 5.892639 2.2171936 10.101654c0.39996338 4.187973 0.59994507 8.712677 0.59994507 13.574097l0 60.231094l14.7117 0l0 -68.65967c0 -13.005875 -2.4258728 -22.928635 -7.277588 -29.768303c-4.8517456 -6.8607025 -11.581543 -10.291054 -20.189453 -10.291054z" fill-rule="evenodd"/><path fill="#000000" d="m456.07874 158.97485l0 29.357925c-3.2866516 3.5355835 -6.808075 6.5239716 -10.5642395 8.96521c-3.756195 2.4201813 -7.9558105 3.6302795 -12.598846 3.6302795c-5.425598 0 -9.546936 -1.546814 -12.364075 -4.640442c-2.8171387 -3.093628 -4.225708 -7.670944 -4.225708 -13.731934c0 -5.366501 1.2781372 -9.543961 3.8344421 -12.532364c2.5562744 -3.0094452 5.7907715 -5.2402344 9.70343 -6.692337c3.2866821 -1.1995697 7.599304 -2.1255646 12.937958 -2.777954c5.356018 -0.67344666 9.781708 -1.1995697 13.277039 -1.5783844zm-21.128479 -52.938972c-4.956085 0 -9.964325 0.56822205 -15.024719 1.7046585c-5.0603943 1.1364365 -8.946991 2.1781693 -11.65979 3.1251984l0 18.088272l0.8607788 0c4.5908813 -2.3360138 9.181763 -4.114319 13.772644 -5.334938c4.5908813 -1.2416611 8.581818 -1.8624954 11.972809 -1.8624954c2.8693237 0 5.66037 0.24202728 8.373138 0.72605896c2.712799 0.46299744 5.0082397 1.4205475 6.8863525 2.8726578c1.8780823 1.388977 3.3388062 3.3672256 4.382202 5.9347153c1.0433655 2.546463 1.5650635 5.9031525 1.5650635 10.070084l0 3.409317c-7.721039 0.5050812 -14.92038 1.2837524 -21.598022 2.3359985c-6.677643 1.0312195 -12.468414 2.9042358 -17.372314 5.619049c-5.529907 3.030487 -9.573029 7.123764 -12.129303 12.279816c-2.556305 5.13501 -3.8344421 11.364365 -3.8344421 18.688065c0 4.735138 0.70428467 9.238785 2.112854 13.510956c1.4085693 4.2510986 3.2866516 7.828781 5.634247 10.733002c2.4519653 2.9673615 5.295166 5.271805 8.529663 6.913315c3.234497 1.6415253 6.6515503 2.4622803 10.251221 2.4622803c4.3822327 0 7.781891 -0.4419403 10.199066 -1.3258362c2.4345703 -0.8838959 4.956085 -2.1466064 7.5645447 -3.7881165c1.8780823 -1.1364441 3.8170166 -2.6622162 5.8168335 -4.5773163c2.017212 -1.9361572 3.625763 -3.4408722 4.825653 -4.5141754l0 11.269653l14.633423 0l0 -72.35307c0 -6.6292114 -0.78253174 -12.2482605 -2.3475952 -16.85714c-1.5650635 -4.608879 -3.9387817 -8.365433 -7.1210938 -11.269653c-3.2866516 -2.9673615 -6.9906616 -5.0192566 -11.1119995 -6.155693c-4.1213684 -1.1364365 -9.181793 -1.7046585 -15.181213 -1.7046585z" fill-rule="evenodd"/><path fill="#000000" d="m492.31018 78.19321l0 30.399658l-9.938202 0l0 14.773666l9.938202 0l0 58.62114c0 11.932587 2.2432861 20.66629 6.729828 26.201172c4.4865417 5.513809 10.746826 8.270721 18.780853 8.270721c2.3997803 0 5.016968 -0.27357483 7.8515015 -0.820755c2.8518677 -0.52612305 5.6603394 -1.2627106 8.425293 -2.2097473l0 -16.004791l-0.8607788 0c-0.99121094 0.5682068 -2.6084595 1.2837372 -4.8517456 2.1465912c-2.2432861 0.8417969 -4.5648193 1.2627106 -6.9645996 1.2627106c-3.3909912 0 -6.0776978 -0.5471802 -8.06012 -1.6415253c-1.9824219 -1.115387 -3.4170532 -2.777954 -4.303955 -4.987686c-1.0433655 -2.525406 -1.6433105 -5.2402344 -1.7998352 -8.144455c-0.15649414 -2.9042206 -0.23474121 -7.0395813 -0.23474121 -12.406097l0 -50.287277l27.075775 0l0 -14.773666l-27.075775 0l0 -30.399658z" fill-rule="evenodd"/><path fill="#000000" d="m579.71954 106.130585c-5.8951416 0 -11.416321 1.2521896 -16.56372 3.7565536c-5.129944 2.4833221 -9.416504 6.0294266 -12.85968 10.638306c-3.4431763 4.608879 -6.199402 10.291054 -8.268799 17.046532c-2.052002 6.755478 -3.077942 14.773666 -3.077942 24.054565c0 9.344025 0.99121094 17.477951 2.9736328 24.401794c1.9824219 6.9027863 4.7734375 12.62706 8.373108 17.172806c3.5996704 4.545746 7.9036255 7.9445343 12.911865 10.196365c5.0082397 2.230774 10.512085 3.346161 16.511536 3.346161c3.130127 0 5.6864014 -0.2420044 7.6688232 -0.7260437c1.9824829 -0.46299744 4.225708 -1.1364441 6.7298584 -2.02034c1.7737427 -0.56822205 3.7561646 -1.431076 5.9472656 -2.5885468c2.191101 -1.1785278 4.017029 -2.1781616 5.477783 -2.998932l0 -19.98233l-0.86083984 0c-3.3388062 3.7881317 -7.173218 6.8817596 -11.503296 9.280899c-4.330017 2.3991394 -8.894775 3.598709 -13.694336 3.598709c-7.9297485 0 -14.12915 -3.4829712 -18.598328 -10.448898c-4.451782 -6.986969 -6.6776123 -16.73085 -6.6776123 -29.231644c0 -12.753342 2.3041382 -22.612976 6.9124146 -29.578903c4.6256104 -6.9869766 10.746826 -10.480461 18.363525 -10.480461c2.5562744 0 5.216858 0.47351074 7.9818726 1.4205399c2.7649536 0.9470291 5.164734 2.0519028 7.199341 3.3146057c2.3475952 1.4521103 4.338684 2.8726501 5.9733276 4.261627c1.6520386 1.388977 2.9997559 2.6201172 4.043091 3.6934204l0.86083984 0l0 -19.982323c-3.4953613 -2.1466064 -7.4776 -4.0406647 -11.946777 -5.6821823c-4.451721 -1.6415176 -9.077393 -2.4622803 -13.876953 -2.4622803z" fill-rule="evenodd"/><path fill="#000000" d="m651.86945 120.998955c7.616638 0 13.485718 3.3356552 17.607056 10.00695c4.121338 6.6502533 6.182068 16.825562 6.182068 30.525925c0 13.510956 -2.078125 23.633652 -6.234253 30.368088c-4.138733 6.713394 -9.990356 10.070084 -17.55487 10.070084c-7.6688843 0 -13.58136 -3.4198303 -17.737549 -10.259491c-4.138733 -6.8607025 -6.208069 -16.920258 -6.208069 -30.17868c0 -13.700363 2.069336 -23.875671 6.208069 -30.525925c4.156189 -6.671295 10.068665 -10.00695 17.737549 -10.00695zm0 -15.341881c-11.738098 0 -21.19806 4.8929825 -28.380005 14.678963c-7.164551 9.785973 -10.746826 23.517906 -10.746826 41.195793c0 17.172806 3.4779053 30.767944 10.433777 40.785416c6.9732666 9.996429 16.537598 14.994644 28.693054 14.994644c11.790222 0 21.232788 -4.840378 28.32782 -14.521118c7.0949707 -9.7017975 10.642517 -23.454773 10.642517 -41.25894c0 -17.741028 -3.5475464 -31.483475 -10.642517 -41.227364c-7.0950317 -9.764923 -16.537598 -14.647392 -28.32782 -14.647392z" fill-rule="evenodd"/><path fill="#000000" d="m744.60004 105.657074c-4.5386963 0 -8.703552 1.2837524 -12.494507 3.8512497c-3.7735596 2.546463 -7.590637 6.1557007 -11.451111 10.827713l0 -11.743172l-14.711731 0l0 105.78323l14.711731 0l0 -78.982285c3.286621 -3.7249908 6.6776123 -6.7870483 10.172974 -9.186195c3.4953003 -2.3991394 6.8341675 -3.598709 10.0164795 -3.598709c3.286621 0 5.8950806 0.59978485 7.8253174 1.7993546c1.9302979 1.1995697 3.4171143 3.0620651 4.4605103 5.5874786c0.99121094 2.3359985 1.6433105 5.57695 1.9562988 9.722839c0.31304932 4.1248474 0.46954346 8.617966 0.46954346 13.479385l0 61.17813l14.71167 0l0 -69.60669c0 -2.02034 -0.04345703 -3.7670746 -0.13043213 -5.2402344c-0.06951904 -1.4942017 -0.1303711 -2.777954 -0.18255615 -3.8512573c3.7039795 -4.230072 7.286255 -7.4604797 10.746826 -9.691269c3.4779663 -2.2518234 6.7297974 -3.377739 9.755615 -3.377739c3.2866821 0 5.8951416 0.59978485 7.8253784 1.7993546c1.9302368 1.1995697 3.4170532 3.0620651 4.460449 5.5874786c0.99121094 2.3359985 1.6433105 5.57695 1.9563599 9.722839c0.31298828 4.1248474 0.46954346 8.617966 0.46954346 13.479385l0 61.17813l14.71167 0l0 -69.60669c0 -7.260559 -0.6434326 -13.289993 -1.9302368 -18.088272c-1.2694702 -4.7982864 -3.078003 -8.807381 -5.425598 -12.027283c-2.2954712 -3.1567612 -4.9821777 -5.440155 -8.06012 -6.8501816c-3.078003 -1.4310608 -6.495056 -2.1465988 -10.251282 -2.1465988c-4.9560547 0 -9.546936 1.546814 -13.772644 4.640442c-4.225647 3.0936356 -8.555725 7.639374 -12.990112 13.63723c-2.086731 -6.5029373 -5.129944 -11.17495 -9.129578 -14.016037c-3.9822388 -2.841095 -8.555725 -4.261635 -13.720459 -4.261635z" fill-rule="evenodd"/><path fill="#000000" d="m868.1626 106.03588c-9.859985 0 -17.76361 2.998932 -23.710876 8.996788c-5.9472656 5.997856 -8.920898 13.763504 -8.920898 23.296936c0 6.9448853 1.5128784 12.86908 4.5386963 17.772583c3.0258179 4.8824615 7.8775024 8.4917145 14.555176 10.827713c2.5562744 0.8838959 5.347351 1.7046509 8.373108 2.4622803c3.0258179 0.7576294 5.477783 1.4205475 7.355896 1.9887695c4.8516846 1.4521027 8.225281 3.2514648 10.120789 5.398056c1.9128418 2.1466064 2.8693237 5.3349457 2.8693237 9.565002c0 3.2830353 -0.4086914 5.7453156 -1.2260132 7.386841c-0.79992676 1.64151 -2.112854 3.188324 -3.9387817 4.640442c-1.3041992 1.0101624 -3.286621 1.8519592 -5.9472656 2.5254211c-2.6605835 0.6523895 -5.164734 0.9785919 -7.512329 0.9785919c-3.234497 0 -6.355957 -0.5366516 -9.36438 -1.6099548c-2.9910278 -1.0733032 -5.7385864 -2.3044434 -8.242676 -3.6934204c-2.8171387 -1.5783691 -5.07782 -3.093628 -6.7820435 -4.5457306c-1.6867676 -1.4521179 -3.156189 -2.777954 -4.408264 -3.9775238l-0.78253174 0l0 19.98233c3.3388062 2.1465912 7.547119 4.166931 12.624939 6.0609894c5.095154 1.8940582 10.564209 2.8410797 16.407166 2.8410797c5.9472656 0 10.885925 -0.820755 14.81604 -2.4622803c3.9474487 -1.64151 7.486267 -4.0406494 10.616394 -7.197418c2.8693237 -2.9042206 5.04303 -6.387192 6.521179 -10.448898c1.4954834 -4.0827484 2.243225 -8.397003 2.243225 -12.942734c0 -7.828781 -1.6346436 -14.016052 -4.9038696 -18.561798c-3.251892 -4.5457306 -8.112305 -7.7972107 -14.581299 -9.754395c-2.9736328 -0.8838959 -5.8081665 -1.6520386 -8.50354 -2.3044434c-2.6780396 -0.67344666 -5.112549 -1.3574066 -7.30365 -2.0518951c-4.382202 -1.388977 -7.564575 -3.1672974 -9.546997 -5.3349457c-1.9824219 -2.1886902 -2.9736328 -5.4927673 -2.9736328 -9.912247c0 -4.987686 1.6694336 -8.712669 5.0082397 -11.174942c3.3388062 -2.4622803 7.434082 -3.6934204 12.285828 -3.6934204c4.6952515 0 9.346985 1.0417328 13.955261 3.1251984c4.6256714 2.0834656 8.816589 4.9245605 12.572754 8.52327l0.78253174 0l0 -19.035301c-3.3388062 -2.209732 -7.460205 -4.040657 -12.364075 -5.492775c-4.9039307 -1.4521103 -9.781738 -2.1781693 -14.633423 -2.1781693z" fill-rule="evenodd"/><path stroke="#000000" stroke-width="1.0" stroke-linejoin="round" stroke-linecap="butt" d="m192.20735 67.01826l0 147.35785l14.711685 0l0 -147.35785z" fill-rule="evenodd"/><path stroke="#000000" stroke-width="1.0" stroke-linejoin="round" stroke-linecap="butt" d="m227.89102 108.592865l0 68.65967c0 7.1342926 0.68688965 13.195282 2.0606842 18.182968c1.391159 4.987686 3.3388214 9.123047 5.8429413 12.406097c2.5041199 3.2830353 5.434265 5.6821747 8.790497 7.197418c3.3735962 1.5152435 6.964569 2.272873 10.772919 2.272873c5.0082397 0 9.546936 -1.2416687 13.61615 -3.7249756c4.0691833 -2.5043793 8.373138 -6.1557007 12.911835 -10.9539795l0 11.743164l14.7117 0l0 -105.78323l-14.7117 0l0 78.982285c-3.3909912 3.5987244 -7.121063 6.6292114 -11.190277 9.091492c-4.0691833 2.4622803 -7.903595 3.6934204 -11.503265 3.6934204c-3.8605194 0 -6.825485 -0.6313629 -8.894852 -1.8940582c-2.0519867 -1.2627106 -3.6779175 -3.25148 -4.8778076 -5.9662933c-1.1998901 -2.777954 -1.9737396 -6.008377 -2.321518 -9.691269c-0.33041382 -3.703949 -0.49562073 -8.365433 -0.49562073 -13.984482l0 -60.231094z" fill-rule="evenodd"/><path stroke="#000000" stroke-width="1.0" stroke-linejoin="round" stroke-linecap="butt" d="m359.12244 105.657074c-4.747406 0 -9.26001 1.262703 -13.537903 3.7881165c-4.2778625 2.5254135 -8.60788 6.155693 -12.990082 10.890846l0 -11.743172l-14.7117 0l0 105.78323l14.7117 0l0 -78.982285c3.7039795 -3.7881317 7.4949646 -6.8607025 11.372864 -9.217758c3.8952942 -2.3780975 7.6688538 -3.5671463 11.320679 -3.5671463c3.70401 0 6.6254883 0.65239716 8.764435 1.9571915c2.138916 1.2837524 3.808319 3.2514725 5.008209 5.9031525c1.0955505 2.525406 1.8346252 5.892639 2.2171936 10.101654c0.39996338 4.187973 0.59994507 8.712677 0.59994507 13.574097l0 60.231094l14.7117 0l0 -68.65967c0 -13.005875 -2.4258728 -22.928635 -7.277588 -29.768303c-4.8517456 -6.8607025 -11.581543 -10.291054 -20.189453 -10.291054z" fill-rule="evenodd"/><path stroke="#000000" stroke-width="1.0" stroke-linejoin="round" stroke-linecap="butt" d="m456.07874 158.97485l0 29.357925c-3.2866516 3.5355835 -6.808075 6.5239716 -10.5642395 8.96521c-3.756195 2.4201813 -7.9558105 3.6302795 -12.598846 3.6302795c-5.425598 0 -9.546936 -1.546814 -12.364075 -4.640442c-2.8171387 -3.093628 -4.225708 -7.670944 -4.225708 -13.731934c0 -5.366501 1.2781372 -9.543961 3.8344421 -12.532364c2.5562744 -3.0094452 5.7907715 -5.2402344 9.70343 -6.692337c3.2866821 -1.1995697 7.599304 -2.1255646 12.937958 -2.777954c5.356018 -0.67344666 9.781708 -1.1995697 13.277039 -1.5783844zm-21.128479 -52.938972c-4.956085 0 -9.964325 0.56822205 -15.024719 1.7046585c-5.0603943 1.1364365 -8.946991 2.1781693 -11.65979 3.1251984l0 18.088272l0.8607788 0c4.5908813 -2.3360138 9.181763 -4.114319 13.772644 -5.334938c4.5908813 -1.2416611 8.581818 -1.8624954 11.972809 -1.8624954c2.8693237 0 5.66037 0.24202728 8.373138 0.72605896c2.712799 0.46299744 5.0082397 1.4205475 6.8863525 2.8726578c1.8780823 1.388977 3.3388062 3.3672256 4.382202 5.9347153c1.0433655 2.546463 1.5650635 5.9031525 1.5650635 10.070084l0 3.409317c-7.721039 0.5050812 -14.92038 1.2837524 -21.598022 2.3359985c-6.677643 1.0312195 -12.468414 2.9042358 -17.372314 5.619049c-5.529907 3.030487 -9.573029 7.123764 -12.129303 12.279816c-2.556305 5.13501 -3.8344421 11.364365 -3.8344421 18.688065c0 4.735138 0.70428467 9.238785 2.112854 13.510956c1.4085693 4.2510986 3.2866516 7.828781 5.634247 10.733002c2.4519653 2.9673615 5.295166 5.271805 8.529663 6.913315c3.234497 1.6415253 6.6515503 2.4622803 10.251221 2.4622803c4.3822327 0 7.781891 -0.4419403 10.199066 -1.3258362c2.4345703 -0.8838959 4.956085 -2.1466064 7.5645447 -3.7881165c1.8780823 -1.1364441 3.8170166 -2.6622162 5.8168335 -4.5773163c2.017212 -1.9361572 3.625763 -3.4408722 4.825653 -4.5141754l0 11.269653l14.633423 0l0 -72.35307c0 -6.6292114 -0.78253174 -12.2482605 -2.3475952 -16.85714c-1.5650635 -4.608879 -3.9387817 -8.365433 -7.1210938 -11.269653c-3.2866516 -2.9673615 -6.9906616 -5.0192566 -11.1119995 -6.155693c-4.1213684 -1.1364365 -9.181793 -1.7046585 -15.181213 -1.7046585z" fill-rule="evenodd"/><path stroke="#000000" stroke-width="1.0" stroke-linejoin="round" stroke-linecap="butt" d="m492.31018 78.19321l0 30.399658l-9.938202 0l0 14.773666l9.938202 0l0 58.62114c0 11.932587 2.2432861 20.66629 6.729828 26.201172c4.4865417 5.513809 10.746826 8.270721 18.780853 8.270721c2.3997803 0 5.016968 -0.27357483 7.8515015 -0.820755c2.8518677 -0.52612305 5.6603394 -1.2627106 8.425293 -2.2097473l0 -16.004791l-0.8607788 0c-0.99121094 0.5682068 -2.6084595 1.2837372 -4.8517456 2.1465912c-2.2432861 0.8417969 -4.5648193 1.2627106 -6.9645996 1.2627106c-3.3909912 0 -6.0776978 -0.5471802 -8.06012 -1.6415253c-1.9824219 -1.115387 -3.4170532 -2.777954 -4.303955 -4.987686c-1.0433655 -2.525406 -1.6433105 -5.2402344 -1.7998352 -8.144455c-0.15649414 -2.9042206 -0.23474121 -7.0395813 -0.23474121 -12.406097l0 -50.287277l27.075775 0l0 -14.773666l-27.075775 0l0 -30.399658z" fill-rule="evenodd"/><path stroke="#000000" stroke-width="1.0" stroke-linejoin="round" stroke-linecap="butt" d="m579.71954 106.130585c-5.8951416 0 -11.416321 1.2521896 -16.56372 3.7565536c-5.129944 2.4833221 -9.416504 6.0294266 -12.85968 10.638306c-3.4431763 4.608879 -6.199402 10.291054 -8.268799 17.046532c-2.052002 6.755478 -3.077942 14.773666 -3.077942 24.054565c0 9.344025 0.99121094 17.477951 2.9736328 24.401794c1.9824219 6.9027863 4.7734375 12.62706 8.373108 17.172806c3.5996704 4.545746 7.9036255 7.9445343 12.911865 10.196365c5.0082397 2.230774 10.512085 3.346161 16.511536 3.346161c3.130127 0 5.6864014 -0.2420044 7.6688232 -0.7260437c1.9824829 -0.46299744 4.225708 -1.1364441 6.7298584 -2.02034c1.7737427 -0.56822205 3.7561646 -1.431076 5.9472656 -2.5885468c2.191101 -1.1785278 4.017029 -2.1781616 5.477783 -2.998932l0 -19.98233l-0.86083984 0c-3.3388062 3.7881317 -7.173218 6.8817596 -11.503296 9.280899c-4.330017 2.3991394 -8.894775 3.598709 -13.694336 3.598709c-7.9297485 0 -14.12915 -3.4829712 -18.598328 -10.448898c-4.451782 -6.986969 -6.6776123 -16.73085 -6.6776123 -29.231644c0 -12.753342 2.3041382 -22.612976 6.9124146 -29.578903c4.6256104 -6.9869766 10.746826 -10.480461 18.363525 -10.480461c2.5562744 0 5.216858 0.47351074 7.9818726 1.4205399c2.7649536 0.9470291 5.164734 2.0519028 7.199341 3.3146057c2.3475952 1.4521103 4.338684 2.8726501 5.9733276 4.261627c1.6520386 1.388977 2.9997559 2.6201172 4.043091 3.6934204l0.86083984 0l0 -19.982323c-3.4953613 -2.1466064 -7.4776 -4.0406647 -11.946777 -5.6821823c-4.451721 -1.6415176 -9.077393 -2.4622803 -13.876953 -2.4622803z" fill-rule="evenodd"/><path stroke="#000000" stroke-width="1.0" stroke-linejoin="round" stroke-linecap="butt" d="m651.86945 120.998955c7.616638 0 13.485718 3.3356552 17.607056 10.00695c4.121338 6.6502533 6.182068 16.825562 6.182068 30.525925c0 13.510956 -2.078125 23.633652 -6.234253 30.368088c-4.138733 6.713394 -9.990356 10.070084 -17.55487 10.070084c-7.6688843 0 -13.58136 -3.4198303 -17.737549 -10.259491c-4.138733 -6.8607025 -6.208069 -16.920258 -6.208069 -30.17868c0 -13.700363 2.069336 -23.875671 6.208069 -30.525925c4.156189 -6.671295 10.068665 -10.00695 17.737549 -10.00695zm0 -15.341881c-11.738098 0 -21.19806 4.8929825 -28.380005 14.678963c-7.164551 9.785973 -10.746826 23.517906 -10.746826 41.195793c0 17.172806 3.4779053 30.767944 10.433777 40.785416c6.9732666 9.996429 16.537598 14.994644 28.693054 14.994644c11.790222 0 21.232788 -4.840378 28.32782 -14.521118c7.0949707 -9.7017975 10.642517 -23.454773 10.642517 -41.25894c0 -17.741028 -3.5475464 -31.483475 -10.642517 -41.227364c-7.0950317 -9.764923 -16.537598 -14.647392 -28.32782 -14.647392z" fill-rule="evenodd"/><path stroke="#000000" stroke-width="1.0" stroke-linejoin="round" stroke-linecap="butt" d="m744.60004 105.657074c-4.5386963 0 -8.703552 1.2837524 -12.494507 3.8512497c-3.7735596 2.546463 -7.590637 6.1557007 -11.451111 10.827713l0 -11.743172l-14.711731 0l0 105.78323l14.711731 0l0 -78.982285c3.286621 -3.7249908 6.6776123 -6.7870483 10.172974 -9.186195c3.4953003 -2.3991394 6.8341675 -3.598709 10.0164795 -3.598709c3.286621 0 5.8950806 0.59978485 7.8253174 1.7993546c1.9302979 1.1995697 3.4171143 3.0620651 4.4605103 5.5874786c0.99121094 2.3359985 1.6433105 5.57695 1.9562988 9.722839c0.31304932 4.1248474 0.46954346 8.617966 0.46954346 13.479385l0 61.17813l14.71167 0l0 -69.60669c0 -2.02034 -0.04345703 -3.7670746 -0.13043213 -5.2402344c-0.06951904 -1.4942017 -0.1303711 -2.777954 -0.18255615 -3.8512573c3.7039795 -4.230072 7.286255 -7.4604797 10.746826 -9.691269c3.4779663 -2.2518234 6.7297974 -3.377739 9.755615 -3.377739c3.2866821 0 5.8951416 0.59978485 7.8253784 1.7993546c1.9302368 1.1995697 3.4170532 3.0620651 4.460449 5.5874786c0.99121094 2.3359985 1.6433105 5.57695 1.9563599 9.722839c0.31298828 4.1248474 0.46954346 8.617966 0.46954346 13.479385l0 61.17813l14.71167 0l0 -69.60669c0 -7.260559 -0.6434326 -13.289993 -1.9302368 -18.088272c-1.2694702 -4.7982864 -3.078003 -8.807381 -5.425598 -12.027283c-2.2954712 -3.1567612 -4.9821777 -5.440155 -8.06012 -6.8501816c-3.078003 -1.4310608 -6.495056 -2.1465988 -10.251282 -2.1465988c-4.9560547 0 -9.546936 1.546814 -13.772644 4.640442c-4.225647 3.0936356 -8.555725 7.639374 -12.990112 13.63723c-2.086731 -6.5029373 -5.129944 -11.17495 -9.129578 -14.016037c-3.9822388 -2.841095 -8.555725 -4.261635 -13.720459 -4.261635z" fill-rule="evenodd"/><path stroke="#000000" stroke-width="1.0" stroke-linejoin="round" stroke-linecap="butt" d="m868.1626 106.03588c-9.859985 0 -17.76361 2.998932 -23.710876 8.996788c-5.9472656 5.997856 -8.920898 13.763504 -8.920898 23.296936c0 6.9448853 1.5128784 12.86908 4.5386963 17.772583c3.0258179 4.8824615 7.8775024 8.4917145 14.555176 10.827713c2.5562744 0.8838959 5.347351 1.7046509 8.373108 2.4622803c3.0258179 0.7576294 5.477783 1.4205475 7.355896 1.9887695c4.8516846 1.4521027 8.225281 3.2514648 10.120789 5.398056c1.9128418 2.1466064 2.8693237 5.3349457 2.8693237 9.565002c0 3.2830353 -0.4086914 5.7453156 -1.2260132 7.386841c-0.79992676 1.64151 -2.112854 3.188324 -3.9387817 4.640442c-1.3041992 1.0101624 -3.286621 1.8519592 -5.9472656 2.5254211c-2.6605835 0.6523895 -5.164734 0.9785919 -7.512329 0.9785919c-3.234497 0 -6.355957 -0.5366516 -9.36438 -1.6099548c-2.9910278 -1.0733032 -5.7385864 -2.3044434 -8.242676 -3.6934204c-2.8171387 -1.5783691 -5.07782 -3.093628 -6.7820435 -4.5457306c-1.6867676 -1.4521179 -3.156189 -2.777954 -4.408264 -3.9775238l-0.78253174 0l0 19.98233c3.3388062 2.1465912 7.547119 4.166931 12.624939 6.0609894c5.095154 1.8940582 10.564209 2.8410797 16.407166 2.8410797c5.9472656 0 10.885925 -0.820755 14.81604 -2.4622803c3.9474487 -1.64151 7.486267 -4.0406494 10.616394 -7.197418c2.8693237 -2.9042206 5.04303 -6.387192 6.521179 -10.448898c1.4954834 -4.0827484 2.243225 -8.397003 2.243225 -12.942734c0 -7.828781 -1.6346436 -14.016052 -4.9038696 -18.561798c-3.251892 -4.5457306 -8.112305 -7.7972107 -14.581299 -9.754395c-2.9736328 -0.8838959 -5.8081665 -1.6520386 -8.50354 -2.3044434c-2.6780396 -0.67344666 -5.112549 -1.3574066 -7.30365 -2.0518951c-4.382202 -1.388977 -7.564575 -3.1672974 -9.546997 -5.3349457c-1.9824219 -2.1886902 -2.9736328 -5.4927673 -2.9736328 -9.912247c0 -4.987686 1.6694336 -8.712669 5.0082397 -11.174942c3.3388062 -2.4622803 7.434082 -3.6934204 12.285828 -3.6934204c4.6952515 0 9.346985 1.0417328 13.955261 3.1251984c4.6256714 2.0834656 8.816589 4.9245605 12.572754 8.52327l0.78253174 0l0 -19.035301c-3.3388062 -2.209732 -7.460205 -4.040657 -12.364075 -5.492775c-4.9039307 -1.4521103 -9.781738 -2.1781693 -14.633423 -2.1781693z" fill-rule="evenodd"/></g></svg>